<svg width="32" height="28" viewBox="0 0 32 28" fill="none" xmlns="http://www.w3.org/2000/svg">
<path d="M15.1959 24.6799C15.1959 25.2229 14.5276 26.0532 13.1595 26.0532C11.7913 26.0532 11.123 25.2229 11.123 24.6799C11.123 24.1369 11.7913 23.3066 13.1595 23.3066C14.5276 23.3066 15.1959 24.1369 15.1959 24.6799Z" stroke="white" stroke-width="2"/>
<path d="M29.3638 24.6799C29.3638 25.2229 28.6956 26.0532 27.3274 26.0532C25.9593 26.0532 25.291 25.2229 25.291 24.6799C25.291 24.1369 25.9593 23.3066 27.3274 23.3066C28.6956 23.3066 29.3638 24.1369 29.3638 24.6799Z" stroke="white" stroke-width="2"/>
<mask id="path-3-inside-1_0_1834" fill="white">
<path d="M0 0.947266H4.04856L11.1416 18.3513H27.3277"/>
</mask>
<path d="M0 -1.05273C-1.10457 -1.05273 -2 -0.157304 -2 0.947266C-2 2.05184 -1.10457 2.94727 0 2.94727V-1.05273ZM4.04856 0.947266L5.90065 0.19244C5.59378 -0.560504 4.86163 -1.05273 4.04856 -1.05273V0.947266ZM11.1416 18.3513L9.28953 19.1061C9.5964 19.8591 10.3285 20.3513 11.1416 20.3513V18.3513ZM27.3277 20.3513C28.4323 20.3513 29.3277 19.4559 29.3277 18.3513C29.3277 17.2467 28.4323 16.3513 27.3277 16.3513V20.3513ZM0 2.94727H4.04856V-1.05273H0V2.94727ZM2.19647 1.70209L9.28953 19.1061L12.9937 17.5965L5.90065 0.19244L2.19647 1.70209ZM11.1416 20.3513H27.3277V16.3513H11.1416V20.3513Z" fill="white" mask="url(#path-3-inside-1_0_1834)"/>
<path d="M31.1501 5.73833L31.1962 5.62283M31.1501 5.73833L31.0861 5.89876L31.1962 5.62283M31.1501 5.73833L31.1962 5.62283M31.1501 5.73833L31.1962 5.62283M7.16108 5.90259H30.8794L27.6873 13.386C27.6696 13.3911 27.6449 13.3957 27.6145 13.3957H10.2353L7.16108 5.90259ZM27.6548 13.4622C27.6549 13.462 27.655 13.4618 27.6551 13.4616L27.6548 13.4622Z" stroke="white" stroke-width="2" stroke-linecap="round" stroke-linejoin="round"/>
</svg>
