<svg width="33" height="33" viewBox="0 0 33 33" fill="none" xmlns="http://www.w3.org/2000/svg">
<path d="M9.55789 0.1875C4.3928 0.1875 0.148438 4.42604 0.148438 9.59695V22.778C0.148438 27.9431 4.38698 32.1875 9.55789 32.1875H22.739C27.9041 32.1875 32.1484 27.949 32.1484 22.778V9.59841C32.1484 4.43186 27.9099 0.1875 22.739 0.1875H9.55789ZM9.55789 3.09659H22.739C23.5929 3.09544 24.4387 3.2628 25.2279 3.58906C26.0171 3.91533 26.7342 4.3941 27.338 4.99794C27.9418 5.60178 28.4206 6.31884 28.7469 7.10801C29.0731 7.89719 29.2405 8.74299 29.2393 9.59695V22.778C29.2405 23.632 29.0731 24.4778 28.7469 25.267C28.4206 26.0562 27.9418 26.7732 27.338 27.3771C26.7342 27.9809 26.0171 28.4597 25.2279 28.7859C24.4387 29.1122 23.5929 29.2796 22.739 29.2784H9.55935C8.70526 29.2798 7.85931 29.1125 7.06996 28.7864C6.28061 28.4602 5.56339 27.9814 4.95939 27.3776C4.35539 26.7737 3.8765 26.0566 3.55014 25.2673C3.22378 24.4781 3.05638 23.6321 3.05753 22.778V9.59841C3.05619 8.74432 3.2234 7.89837 3.54958 7.10902C3.87576 6.31968 4.3545 5.60245 4.95836 4.99846C5.56223 4.39446 6.27934 3.91556 7.06861 3.5892C7.85789 3.26284 8.70381 3.09544 9.55789 3.09659ZM24.739 6.27914C24.5657 6.27837 24.394 6.31193 24.2338 6.37788C24.0735 6.44384 23.928 6.54088 23.8054 6.6634C23.6829 6.78592 23.5859 6.9315 23.5199 7.09174C23.454 7.25197 23.4204 7.42368 23.4212 7.59695C23.4212 8.33005 24.0059 8.91477 24.739 8.91477C24.9124 8.91574 25.0842 8.88232 25.2446 8.81645C25.4051 8.75058 25.5508 8.65357 25.6735 8.53103C25.7962 8.40849 25.8933 8.26284 25.9594 8.10251C26.0254 7.94218 26.059 7.77035 26.0583 7.59695C26.059 7.42356 26.0254 7.25173 25.9594 7.0914C25.8933 6.93107 25.7962 6.78542 25.6735 6.66288C25.5508 6.54034 25.4051 6.44333 25.2446 6.37746C25.0842 6.31159 24.9124 6.27817 24.739 6.27914ZM16.1484 7.46023C11.3484 7.46023 7.42116 11.3875 7.42116 16.1875C7.42116 20.9875 11.3484 24.9148 16.1484 24.9148C20.9484 24.9148 24.8757 20.9875 24.8757 16.1875C24.8757 11.3875 20.9484 7.46023 16.1484 7.46023ZM16.1484 10.3693C19.3819 10.3693 21.9666 12.954 21.9666 16.1875C21.9666 19.421 19.3819 22.0057 16.1484 22.0057C12.915 22.0057 10.3303 19.421 10.3303 16.1875C10.3303 12.954 12.915 10.3693 16.1484 10.3693Z" fill="white"/>
</svg>
