<svg width="852" height="216" viewBox="0 0 852 216" fill="none" xmlns="http://www.w3.org/2000/svg">
<path fill-rule="evenodd" clip-rule="evenodd" d="M0 9.0673V107.254C3.5384 107.343 7.07811 107.441 10.6187 107.54C18.0773 107.748 25.5393 107.955 33 108.069V33H49.8C60.3 33 66.6 38.4 66.6 53.4V58.9239C67.4557 58.9278 68.2984 58.9308 69.1301 58.9337C77.5132 58.9634 84.7815 58.9892 92.957 59.9044C95.2117 60.1567 97.4234 60.4437 99.6 60.7571V54.9C99.6 40.9656 96.8138 29.6625 91.1985 21.2049C86.2816 21.0371 81.3829 20.849 76.6377 20.5315C68.2291 19.9689 60.4459 18.9846 52.9709 17.9378L36.9654 15.2806C31.459 14.6604 26.7382 13.6644 22.1167 12.6892L22.0559 12.6763C20.641 12.3779 19.236 12.0815 17.8191 11.7986C14.1442 11.0645 9.95775 10.4799 5.77794 9.89621L5.77786 9.8962L5.76976 9.89507L5.76461 9.89435L5.76451 9.89433L5.76447 9.89433L5.76446 9.89432L5.76445 9.89432C3.82461 9.62344 1.88596 9.35271 0 9.0673ZM0 131.646V117.744C1.86123 117.835 3.74772 117.92 5.64005 118.005C10.8835 118.24 16.1721 118.478 21.0881 118.863C24.7794 119.153 25.9343 119.617 24.6679 120.469C22.9015 121.657 20.2049 122.688 17.3132 123.737C15.1684 124.516 13.5977 125.39 12.0292 126.262L12.0262 126.264L12.0138 126.271L12.0133 126.271C10.9236 126.877 9.83491 127.482 8.55436 128.054C5.86748 129.255 3.06152 130.474 0 131.646ZM0 213V154.511C0.784204 154.091 1.62144 153.674 2.50617 153.257C4.52863 152.305 6.61554 151.368 8.69896 150.433C12.7927 148.595 16.869 146.765 20.4105 144.841C24.164 142.802 28.4255 140.853 33 138.934V183H49.8C60.3 183 66.6 177.6 66.6 162.6V126.309L66.7168 126.264L67.096 126.117L67.0966 126.117L67.0971 126.117C72.6519 123.97 78.1634 121.84 84.8156 119.854C86.3276 119.403 87.8412 118.955 89.3533 118.507L89.479 118.47C92.8908 117.461 96.2875 116.456 99.6 115.433V161.1C99.6 194.7 83.4 213 50.4 213H0ZM79.8805 108.693C75.4952 108.538 71.0574 108.427 66.6 108.348V71.2929C75.4297 73.6782 84.2647 76.1996 91.4711 78.8537C93.4428 79.5799 96.3762 80.4741 99.6 81.2313V110.234C99.1394 110.189 98.6789 110.143 98.2182 110.098L98.1698 110.093L98.1668 110.093C92.2223 109.507 86.2534 108.918 79.8805 108.693ZM0 8.00004L75.8776 8.00004C68.9297 4.69487 60.4428 3 50.4 3H0V8.00004ZM121.875 22.6097V64.7376C126.322 65.6085 130.734 66.4651 135.195 67.2202C141.828 68.3429 148.307 68.6375 154.875 68.6038V24.5239C147.547 24.1453 140.279 23.7082 133.011 23.2712L132.99 23.2699L132.955 23.2678C129.264 23.0459 125.573 22.824 121.875 22.6097ZM154.875 10.694C151.81 10.2804 148.804 9.84765 145.87 9.40028C142.876 8.94348 139.902 8.47652 136.951 8.00005L121.875 8.00005V3H154.875V10.694ZM179.371 25.6178C176.138 33.0409 174.49 41.9555 174.49 52.2C174.49 57.7776 174.976 62.9824 176.069 67.9916C179.413 67.9088 182.836 67.8702 186.363 67.9296C193.855 68.0557 202.655 68.22 211.947 68.4785C208.768 62.4925 207.49 56.6853 207.49 50.1C207.49 35.7 213.49 30 223.99 30C234.49 30 240.49 35.7 240.49 50.7V61.5H271.69V52.8C271.69 44.9719 270.827 37.9254 269.097 31.7212C260.549 30.9613 251.779 30.3193 242.946 29.7448C237.043 29.3608 231.258 28.8672 225.476 28.374C218.47 27.7763 211.467 27.179 204.264 26.7773C196.044 26.3188 187.71 25.9647 179.371 25.6178ZM265.022 21.4309C244.699 18.6537 226.402 17.2191 206.841 15.6854L206.835 15.6849L206.814 15.6832C200.304 15.1728 193.653 14.6513 186.74 14.0656C195.029 4.92219 207.437 0 223.69 0C235.846 0 245.679 2.75358 253.205 8.00005H251.414C249.313 8.34547 248.834 8.65597 253.371 8.93852C253.779 8.96398 254.187 8.98966 254.593 9.01556C258.876 12.3047 262.351 16.4611 265.022 21.4309ZM291.053 34.0367C289.763 39.3484 289.111 45.2181 289.111 51.6V126.603C289.534 126.293 289.928 125.984 290.282 125.676C290.924 125.118 291.558 124.557 292.196 123.993C295.752 120.848 299.388 117.631 304.727 114.623C308.301 112.61 313.794 110.521 319.429 108.707C320.316 108.421 321.204 108.141 322.111 107.869V49.5C322.111 45.5478 322.652 42.2599 323.657 39.5801C320.013 38.8055 316.33 38.0413 312.494 37.3224C305.749 36.0584 298.559 34.9768 291.053 34.0367ZM328.862 32.6512C323.738 31.57 318.348 30.5824 312.952 29.5937L312.951 29.5936L312.95 29.5934C308.068 28.6989 303.181 27.8033 298.48 26.8364C296.938 26.5194 295.343 26.2093 293.707 25.9057C295.733 21.094 298.422 16.8948 301.759 13.3573C302.406 13.4325 303.054 13.5084 303.704 13.5849L305.333 13.7767L305.336 13.777L305.336 13.7771C330.161 16.6996 352.09 19.2813 378.62 19.8543C382.88 26.7966 385.396 35.4258 386.104 45.5277C385.774 45.4619 385.445 45.3966 385.119 45.3319L385.109 45.33L385.089 45.326L385.089 45.3259C383.739 45.0583 382.435 44.7996 381.331 44.5486L352.929 38.0914C350.213 32.4691 345.127 30 338.611 30C334.814 30 331.502 30.8386 328.862 32.6512ZM354.898 45.4316C355.039 46.7009 355.111 48.0561 355.111 49.5V73.8H386.311V51.6C386.311 50.7465 386.299 49.9022 386.276 49.0672C380.863 48.3614 375.253 47.7479 369.625 47.1327C365.813 46.716 361.995 46.2986 358.225 45.851C357.097 45.7171 355.989 45.5771 354.898 45.4316ZM121.875 83.2712V141.792L122.159 141.843C126.798 142.674 130.82 143.395 134.28 144.922C138.479 146.775 141.409 149.09 144.286 151.363L144.287 151.363C145.827 152.58 147.352 153.785 149.049 154.901C150.628 155.94 152.617 156.669 154.875 157.22V83.4064C152.708 83.3845 150.544 83.356 148.378 83.3273L148.377 83.3273C144.3 83.2735 140.213 83.2195 136.068 83.2099C133.694 83.2044 131.333 83.2229 128.993 83.2413H128.993H128.992H128.992H128.991H128.991H128.99H128.99H128.989H128.989H128.988H128.988H128.988C126.591 83.2601 124.217 83.2787 121.875 83.2712ZM121.875 213V166.497C123.318 166.762 124.828 167.002 126.353 167.244L126.354 167.244L126.354 167.244L126.355 167.244L126.355 167.244L126.355 167.244L126.356 167.244L126.356 167.245L126.356 167.245L126.357 167.245C127.684 167.455 129.024 167.668 130.342 167.901C132.637 168.308 134.848 168.744 137.052 169.18L137.053 169.18L137.053 169.18L137.053 169.18L137.054 169.18L137.054 169.18L137.054 169.18L137.055 169.18L137.055 169.18L137.055 169.18L137.056 169.18L137.056 169.181C140.342 169.829 143.614 170.476 147.134 171.016C149.608 171.396 152.232 171.708 154.875 172.015V213H121.875ZM222.49 216C194.22 216 178.284 201.383 174.68 175.339C177.608 176.061 180.165 176.858 183.018 178.048C186.005 179.293 191.435 179.118 195.545 178.57C198.207 178.215 200.942 177.882 203.683 177.55L203.684 177.549L203.685 177.549L203.686 177.549L203.686 177.549L203.687 177.549L203.688 177.549L203.689 177.549L203.689 177.549L203.69 177.549L203.691 177.549L203.692 177.549C204.798 177.414 205.906 177.28 207.01 177.143C209.688 183.491 215.033 186 222.19 186C227.719 186 232.166 184.503 235.138 180.808C235.412 181.254 235.96 181.686 236.507 182.118L236.507 182.118C237.28 182.728 238.052 183.337 238.052 183.984C238.052 184.885 238.595 186.224 241.191 186.977C241.691 187.122 242.244 187.449 242.828 187.794C243.672 188.293 244.581 188.83 245.488 188.911C248.112 189.147 250.528 189.482 252.367 189.935C252.575 189.986 252.795 190.064 253.018 190.141L253.018 190.142C253.733 190.392 254.473 190.651 254.904 190.091C255.791 188.938 255.563 187.748 255.335 186.558C255.144 185.56 254.953 184.562 255.419 183.585C256.221 181.906 258.203 180.266 260.182 178.628C262.192 176.965 264.198 175.304 264.962 173.608C265.644 172.096 265.646 170.571 265.649 169.045C265.651 167.398 265.654 165.75 266.511 164.117C267.504 162.225 269.612 160.413 272.099 158.582L272.127 158.561L272.153 158.542L272.189 158.515L272.214 158.496C272.265 159.839 272.29 161.206 272.29 162.6C272.29 196.8 254.89 216 222.49 216ZM269.786 141.605C265.558 125.997 255.492 112.571 235.99 95.4C231.006 91.0392 226.805 87.0937 223.291 83.416C216.63 82.9612 210.527 82.8207 202.431 82.6843C195.587 82.5689 188.534 82.7963 181.502 83.0307C187.116 93.9303 196.506 104.76 211.09 117.6C224.416 129.26 232.032 137.952 235.912 146.985C236.158 146.981 236.404 146.978 236.65 146.975C236.958 146.972 237.266 146.969 237.574 146.965L237.582 146.965C239.781 146.943 241.958 146.921 243.898 146.732C250.451 146.093 256.446 144.764 261.33 143.681L261.331 143.681L261.696 143.6C264.586 142.959 267.316 142.301 269.786 141.605ZM289.111 150.894V164.4C289.111 196.8 305.911 216 337.711 216C367.511 216 384.139 199.139 386.112 170.354C381.152 165.959 383.374 161.842 385.896 157.17L386.058 156.869C386.145 156.708 386.229 156.547 386.311 156.388V134.7H355.111V166.8C355.111 180.6 348.511 186 338.611 186C328.711 186 322.111 180.6 322.111 166.8V134.116C318.917 136.084 315.738 138.053 313.109 140.069C311.122 141.593 309.336 143.046 308.124 144.597C307.138 145.857 305.133 147.104 302.276 148.241C299.525 149.336 294.925 150.024 290.322 150.712L289.88 150.778C289.624 150.817 289.367 150.855 289.111 150.894ZM454.341 216C427.539 216 410.796 202.861 405.81 179.301C407.02 179.719 408.222 180.133 409.397 180.547C412.797 181.743 415.933 182.977 419.07 184.212C421.864 185.312 424.659 186.413 427.643 187.486C428.756 187.887 429.869 188.338 431.022 188.805C434.251 190.113 437.791 191.546 442.518 192.353C446.329 193.004 450.436 193.452 454.668 193.914L454.67 193.914L454.671 193.914L454.672 193.914L454.673 193.914L454.675 193.914C455.81 194.038 456.955 194.163 458.105 194.293C459.753 194.479 461.722 194.617 463.735 194.758C467.35 195.011 471.107 195.274 473.398 195.846C475.043 196.257 478.854 196.927 481.317 196.918L472.332 186.465C471.372 185.28 471.12 184.095 470.868 182.908C470.676 182.003 470.483 181.098 469.977 180.192C469.646 179.599 469.239 179.009 468.81 178.42C470.517 175.223 471.441 170.912 471.441 165.3V144.391C472.6 144.547 473.761 144.706 474.924 144.868C479.479 145.505 483.919 146.248 488.379 146.996L488.379 146.996L488.38 146.996L488.38 146.996L488.38 146.996L488.38 146.996L488.381 146.996L488.381 146.996L488.381 146.996L488.381 146.996C493.63 147.875 498.909 148.759 504.441 149.48V163.2C504.441 178.106 500.957 190.178 494.252 198.996C494.223 199.017 494.195 199.037 494.166 199.058C493.947 199.217 493.733 199.362 493.538 199.493C492.786 199.999 492.33 200.307 493.057 200.493C484.592 210.592 471.536 216 454.341 216ZM437.241 140.772V156.813C428.688 153.923 416.549 151.841 404.241 149.855V105.541C404.966 105.415 405.684 105.288 406.393 105.159C410.364 104.433 414.649 103.876 418.976 103.314L418.977 103.314C421.608 102.972 424.255 102.629 426.857 102.243C430.497 101.705 434.095 101.148 437.241 100.5V136.639C432.425 136.761 427.405 136.819 422.805 136.575C422.674 136.568 422.251 136.538 421.673 136.497L421.649 136.495L421.649 136.495C419.179 136.318 413.951 135.943 416.391 136.303C419.581 136.773 422.09 137.552 424.591 138.327C427.758 139.31 430.911 140.288 435.415 140.631C435.67 140.65 435.925 140.67 436.179 140.689C436.534 140.717 436.888 140.744 437.241 140.772ZM337.711 0C325.618 0 315.694 2.77668 308.038 8.00005L367.384 8.00005C359.728 2.77668 349.804 0 337.711 0ZM454.341 0C466.611 0 476.772 2.75358 484.663 8.00006L424.018 8.00005C431.909 2.75358 442.071 0 454.341 0ZM504.441 52.8C504.441 36.79 500.422 24.0494 492.709 15.0975C486.594 15.4316 480.445 15.727 474.298 16.0223C465.825 16.4294 457.353 16.8364 448.976 17.3445C446.011 17.5244 443.023 17.7125 440.016 17.9018L440.015 17.9019L440.013 17.902L440.012 17.9021L440.011 17.9021L440.01 17.9022L439.939 17.9067C430.984 18.4707 421.867 19.0447 412.71 19.4433C407.13 28.0006 404.241 39.2251 404.241 52.8V96.6454C407.802 96.3302 411.449 96.047 415.116 95.7623C415.819 95.7077 416.523 95.6531 417.227 95.5981C423.889 95.0782 430.549 94.5597 437.241 94.0578V87.9179C432.378 88.997 428.061 90.1911 423.7 91.3973C422.186 91.8159 420.666 92.2362 419.117 92.6535C420.582 92.1902 421.599 91.6544 422.617 91.1185C423.489 90.6585 424.362 90.1989 425.517 89.7852C429.743 88.2711 433.839 86.6626 436.356 84.9447C436.659 84.7376 436.953 84.5299 437.241 84.3218V50.7C437.241 35.7 443.841 30 454.341 30C464.841 30 471.441 35.7 471.441 50.7V70.9714C476.913 69.681 482.633 68.4414 488.346 67.2032C492.852 66.2266 497.355 65.2504 501.73 64.2513C502.641 64.0431 503.544 63.8325 504.441 63.62V52.8ZM504.441 84.2588C498.734 83.6008 492.716 83.1227 486.487 83.1227C481.585 83.1227 476.484 83.2846 471.441 83.5748V91.4464C475.087 91.1865 478.657 91 481.794 91C481.794 91.3977 479.341 92.1197 477.925 92.4055C476.225 92.7488 474.256 93.0112 472.289 93.2734L471.978 93.3148C471.799 93.3387 471.62 93.3627 471.441 93.3867V135.425C482.802 134.573 493.199 133.261 503.691 131.936L504.441 131.842V84.2588ZM530.31 87.7795C537.212 88.6467 544.354 89.4211 551.619 90.0472C555.16 90.3524 558.77 90.6494 562.432 90.9341L566.823 124.053C564.437 123.992 562.182 124.203 559.888 124.418C558.966 124.505 558.037 124.592 557.091 124.662C552.872 124.975 549.094 125.566 545.303 126.159C542.767 126.555 540.225 126.953 537.54 127.269C537.128 127.318 536.719 127.368 536.312 127.419L530.31 87.7795ZM582.727 92.334L574.533 154.125C576.361 155.71 576.993 157.444 577.174 159.05L577.179 159.091L577.181 159.12C577.184 159.151 577.187 159.183 577.19 159.216C577.266 160.042 577.401 161.532 580.82 161.74C584.53 161.966 586.714 159.96 587.787 158.974C587.852 158.915 587.912 158.859 587.968 158.808C588.051 158.734 588.125 158.669 588.19 158.615C589.633 157.438 589.192 156.028 588.771 154.68C588.547 153.962 588.329 153.262 588.401 152.623C588.512 151.641 588.231 150.671 587.949 149.7L587.949 149.699C587.727 148.935 587.505 148.17 587.474 147.399C587.411 145.855 587.934 144.293 588.456 142.73C589.003 141.095 589.55 139.459 589.427 137.843C589.385 137.28 589.126 133.642 592.854 133.985C595.587 134.236 598.73 135.437 600.751 136.209C601.076 136.333 601.371 136.446 601.632 136.542C602.517 136.869 603.48 137.194 604.503 137.512L611.154 93.5903C601.717 93.3365 592.155 92.8965 582.727 92.334ZM613.954 75.0978C613.904 75.0874 613.854 75.077 613.804 75.0666L613.796 75.065C611.798 74.6513 609.796 74.2372 607.568 73.8977C601.996 73.049 596.653 73.0515 590.356 73.0548H589.229C587.912 73.0548 586.597 73.0509 585.284 73.0441L585.851 68.7735C592.113 68.7908 598.362 68.7827 604.471 68.4312C608.127 68.2208 611.658 67.9449 615.087 67.6179L613.954 75.0978ZM640.723 93.7611V213H730.723V198.675C729.251 198.74 727.753 198.797 726.22 198.847C721.159 199.012 716.411 199.134 711.295 199.134C708.455 199.134 705.841 198.439 703.628 197.85C702.945 197.669 702.301 197.497 701.7 197.359C700.154 197.005 698.564 196.666 696.974 196.326C695.1 195.926 693.225 195.526 691.42 195.101C689.827 194.726 691.171 194.662 692.651 194.592C692.822 194.584 692.995 194.576 693.165 194.567C693.391 194.555 693.612 194.543 693.819 194.528C696.446 194.34 698.698 193.977 700.943 193.616L700.946 193.615C701.826 193.474 702.704 193.332 703.604 193.202C707.531 192.631 711.763 192.192 715.986 191.753C717.641 191.581 719.295 191.409 720.928 191.23C723.342 190.965 725.907 190.808 728.476 190.652L728.482 190.651L728.5 190.65C729.004 190.62 729.509 190.589 730.013 190.557C730.25 190.542 730.487 190.527 730.723 190.512V183H673.723V175.239C668.19 177.989 663.017 180.326 658.61 181.673C652.526 183.534 647.542 182.569 645.403 181.171C644.299 180.451 643.055 179.818 641.701 179.256L673.723 157.788V118.5H719.023V88.5H673.868C670.876 90.0124 667.08 91.4094 661.896 92.5187C656.856 93.597 648.787 93.7597 642.347 93.7597C641.807 93.7597 641.265 93.7602 640.723 93.7611ZM673.723 83.3022C673.576 83.3039 673.428 83.3047 673.28 83.3047C667.091 83.3047 662.43 82.3783 657.793 81.4566L657.792 81.4565L657.788 81.4557C655.178 80.9369 652.577 80.4198 649.714 80.0707C646.688 79.7013 643.699 79.3172 640.723 78.9278V64.2052C643.787 63.7096 646.818 63.2011 649.84 62.6941L650.017 62.6643C653.769 62.0351 657.506 61.4084 661.279 60.8118C665.387 60.1624 669.548 59.5171 673.723 58.8698V83.3022ZM673.723 44.3725V33H730.723V3H640.723V48.4761C652.021 47.3677 662.617 45.9052 673.207 44.4437L673.214 44.4427C673.383 44.4193 673.553 44.3959 673.723 44.3725ZM617.732 50.1483L624.872 3H594.572L588.159 51.3655C590.104 51.2691 592.069 51.1868 594.056 51.12C601.778 50.8603 609.863 50.5584 617.732 50.1483ZM557.534 54.001L551.442 8.05045C550.9 8.20225 550.353 8.34565 549.793 8.47744C548.547 8.77065 547.332 9.06452 546.127 9.35624L546.122 9.35752L546.011 9.38433L545.997 9.38755C541.407 10.4985 536.951 11.5769 531.482 12.4676C527.976 13.039 523.671 13.4329 519.098 13.7355L525.855 58.3581C527.214 58.0429 528.59 57.7327 529.988 57.4293C535.903 56.1466 543.961 55.3514 551.725 54.5852L551.742 54.5835C553.705 54.39 555.649 54.1983 557.534 54.001ZM559.581 69.4368C553.164 69.9791 547.219 70.8176 541.383 71.6406L541.365 71.6431C539.474 71.91 537.592 72.1753 535.711 72.4287C532.521 72.8576 533.227 72.8563 536.011 72.8514L536.019 72.8514C536.354 72.8506 536.721 72.8498 537.113 72.8498H560.034L559.581 69.4368ZM419.117 92.6535C418.803 92.7528 418.471 92.8483 418.114 92.9397C416.769 93.2845 416.008 93.4805 415.701 93.5605C416.131 93.4481 417.38 93.1205 418.985 92.6892L419.117 92.6535ZM518.229 8.00006L551.435 8.00006L550.772 3H517.472L518.229 8.00006ZM549.272 213L546.218 192.835L546.614 192.767C554.976 191.325 564.045 191.167 571.377 192.764C574.808 193.512 578.038 194.299 581.252 195.083C585.797 196.191 590.308 197.29 595.305 198.257L593.072 213H549.272ZM567.197 126.876L570.498 151.77C570.141 151.625 569.765 151.483 569.37 151.345C567.62 150.734 566.199 150.088 564.785 149.446L564.785 149.445C562.461 148.389 560.156 147.342 556.437 146.469C554.476 146.008 552.256 145.635 550.04 145.262C547.833 144.89 545.63 144.52 543.691 144.064C542.12 143.695 540.459 143.346 538.679 143.047L537.734 136.803C539.638 136.316 541.425 135.777 543.036 135.288C544.156 134.948 545.107 134.581 546.059 134.214C547.197 133.775 548.335 133.336 549.76 132.944C550.851 132.643 552.002 132.369 553.15 132.095L553.151 132.095C554.636 131.741 556.116 131.388 557.453 130.981C561.714 129.684 564.804 128.379 567.197 126.876ZM205.09 165.6C205.09 166.083 205.097 166.555 205.11 167.018C195.725 164.358 184.84 162.063 176.728 160.403C175.794 160.212 174.846 160.043 173.89 159.89V151.2H205.09V165.6ZM749.707 122.939V117.439C754.577 114.199 759.792 110.746 764.96 107.323L764.98 107.309C772.695 102.2 780.306 97.1596 786.515 93H794.707C807.007 93 814.507 87.6 814.507 70.8V54.6C814.507 43.9303 811.927 37.5107 806.226 34.6935C806.319 34.7023 806.407 34.7111 806.492 34.7199C810.653 35.1553 814.438 36.2138 817.68 37.1203L817.681 37.1205L817.691 37.1232C818.563 37.367 819.396 37.5997 820.186 37.8064C821.241 38.0824 822.289 38.3708 823.349 38.6622L823.433 38.6854C828.623 40.1139 834.079 41.6153 841.864 42.1458C843.64 42.2669 845.384 42.4085 847.11 42.5615C847.376 45.3275 847.507 48.2402 847.507 51.3V64.2C847.507 66.5734 847.424 68.8527 847.256 71.0377C847.088 71.122 846.921 71.2066 846.753 71.2917C846.626 71.3563 846.499 71.4211 846.371 71.4862C842.422 73.5049 839.528 75.5913 836.631 77.6805L836.629 77.6821C834.679 79.088 832.728 80.4951 830.451 81.8842C826.109 84.5336 823.596 86.8567 825.177 89.7312C825.501 90.3208 830.246 97.0091 832.823 96.8147C834.833 96.6634 836.712 96.185 838.549 95.7172L838.564 95.7132L838.893 95.6298C838.998 95.603 839.103 95.5764 839.208 95.55C835.841 99.9984 831.423 103.348 825.907 105.6V106.2C842.407 111.3 847.807 126.9 847.807 150.6V187.5C847.807 197.7 848.107 205.2 851.407 213H817.807L817.716 212.726C816.592 209.359 815.712 206.721 815.226 200.812C816.574 200.999 817.521 201.006 817.521 200.657C817.521 199.495 816.714 198.287 815.77 197.145C815.484 196.798 815.212 196.451 814.953 196.104C814.857 193.623 814.807 190.701 814.807 187.2V148.8C814.807 146.443 814.724 144.279 814.551 142.295C814.668 140.669 814.501 139.043 813.871 137.415C812.908 132.652 811.171 129.268 808.513 126.981C808.357 125.641 807.951 124.352 806.556 123C805.803 123.319 804.638 123.739 803.326 124.176C800.752 123.361 797.696 123 794.107 123H782.707V131.763L782.251 131.937C781.679 132.154 781.11 132.372 780.552 132.588C778.853 133.248 778.037 133.952 777.203 134.671C776.902 134.931 776.598 135.193 776.249 135.456C772.808 138.047 774.737 140.549 776.677 143.066C778.232 145.083 779.795 147.111 778.61 149.202C777.686 150.834 775.431 152.306 773.166 153.785C771.656 154.772 770.141 155.761 769.015 156.802C768.421 157.351 767.844 157.903 767.267 158.456L767.266 158.456L767.266 158.457C765.291 160.347 763.306 162.248 760.563 164.078C760.124 164.371 759.682 164.659 759.244 164.945L759.241 164.947C756.059 167.026 753.1 168.958 753.1 171.256C753.1 172.143 753.273 173.034 753.444 173.922C753.615 174.803 753.785 175.682 753.785 176.552C753.785 178.079 756.283 179.497 758.779 180.913C760.426 181.848 762.073 182.782 762.999 183.748C763.796 184.578 763.467 185.613 762.39 186.427C761.462 187.128 759.548 187.229 757.192 187.354C756.661 187.382 756.107 187.411 755.537 187.449C753.53 187.581 751.592 187.785 749.707 188.029V135.078C756.183 131.047 762.579 126.944 768.949 122.857L768.952 122.855C781.579 114.755 794.106 106.718 806.964 99.4305L786.224 105.252C779.745 107.884 765.585 114.981 752.56 121.509L752.559 121.51L752.558 121.51C751.6 121.99 750.649 122.467 749.707 122.939ZM845.413 33.494C830.612 33.1615 814.343 32.7961 800.467 33.1356C799.591 33.0449 798.672 33 797.707 33H782.707V90.1467L781.37 90.664C773.461 94.4881 765.423 99.0299 757.634 103.431L757.632 103.432C754.956 104.944 752.309 106.44 749.707 107.884V3H798.607C825.818 3 840.685 13.0655 845.624 33.4988L845.413 33.494ZM749.707 197.158V213H782.707V194.869C777.502 194.483 770.964 194.12 766.274 194.528C762.839 194.827 759.89 195.39 756.938 195.953C754.609 196.398 752.278 196.843 749.707 197.158Z" fill="#950101"/>
</svg>
