<svg width="43" height="30" viewBox="0 0 43 30" fill="none" xmlns="http://www.w3.org/2000/svg">
<path d="M16.9484 21.4018L27.8474 15.1875L16.9484 8.97321V21.4018ZM41.2244 5.1825C41.4974 6.15607 41.6864 7.46107 41.8124 9.11821C41.9594 10.7754 42.0224 12.2046 42.0224 13.4475L42.1484 15.1875C42.1484 19.7239 41.8124 23.0589 41.2244 25.1925C40.6994 27.0568 39.4814 28.2582 37.5914 28.7761C36.6044 29.0454 34.7984 29.2318 32.0264 29.3561C29.2964 29.5011 26.7974 29.5632 24.4874 29.5632L21.1484 29.6875C12.3494 29.6875 6.86844 29.3561 4.70544 28.7761C2.81544 28.2582 1.59744 27.0568 1.07244 25.1925C0.799438 24.2189 0.610438 22.9139 0.484438 21.2568C0.337438 19.5996 0.274437 18.1704 0.274437 16.9275L0.148438 15.1875C0.148438 10.6511 0.484438 7.31607 1.07244 5.1825C1.59744 3.31821 2.81544 2.11679 4.70544 1.59893C5.69244 1.32964 7.49844 1.14321 10.2704 1.01893C13.0004 0.873928 15.4994 0.811786 17.8094 0.811786L21.1484 0.6875C29.9474 0.6875 35.4284 1.01893 37.5914 1.59893C39.4814 2.11679 40.6994 3.31821 41.2244 5.1825Z" fill="white"/>
</svg>
